<svg xmlns="http://www.w3.org/2000/svg" width="16.032" height="16" viewBox="0 0 16.032 16">
  <g id="_064-pencil-4" data-name="064-pencil-4" transform="translate(0 -0.488)">
    <g id="Сгруппировать_33" data-name="Сгруппировать 33" transform="translate(0 0.488)">
      <g id="Сгруппировать_32" data-name="Сгруппировать 32" transform="translate(0 0)">
        <path id="Контур_58" data-name="Контур 58" d="M15.356,1.161a2.341,2.341,0,0,0-3.28,0L10.429,2.808l-.743.743A3.637,3.637,0,0,0,6.1.488H3.637A3.644,3.644,0,0,0,0,4.132V6.6a3.63,3.63,0,0,0,3.063,3.574l-1.191,1.2-.14.161a.35.35,0,0,0-.168.189L.3,15.227l-.28.82a.35.35,0,0,0,.084.364.344.344,0,0,0,.105.07.35.35,0,0,0,.133,0H.463l3.021-1.072,1.234-.442h.056a.33.33,0,0,0,.161-.14,1.4,1.4,0,0,0,.28-.217L15.356,4.441A2.327,2.327,0,0,0,15.356,1.161ZM.9,15.585l.771-2.075a1.563,1.563,0,0,1,1.332,1.332Zm3.5-1.219-.729.238a2.236,2.236,0,0,0-.617-1.149,2.257,2.257,0,0,0-1.149-.617l.259-.7A1.6,1.6,0,0,1,4.4,14.365Zm.988-.96a2.264,2.264,0,0,0-2.257-2.271H3.112l.9-.911H8.579ZM9.041,9.529h-5.4A2.937,2.937,0,0,1,.7,6.6V4.132A2.944,2.944,0,0,1,3.637,1.189H6.1A2.951,2.951,0,0,1,9.041,4.132Zm4.185-3.961-.015.015L9.742,9.06V4.483l1.177-1.177a1.616,1.616,0,0,1,2.307,2.263Zm1.708-1.7q-.037.04-.076.077l-.47.47A2.327,2.327,0,0,0,12.1,2.128l.47-.47a1.619,1.619,0,1,1,2.368,2.208Z" transform="translate(0 -0.488)" fill="#adadad"/>
      </g>
    </g>
    <g id="Сгруппировать_35" data-name="Сгруппировать 35" transform="translate(1.507 2.962)">
      <g id="Сгруппировать_34" data-name="Сгруппировать 34">
        <path id="Контур_59" data-name="Контур 59" d="M51.676,75.793H46.819a.946.946,0,0,0-.953.939s0,.009,0,.014v2.888a.946.946,0,0,0,.946.946h4.864a.946.946,0,0,0,.918-.946V76.746A.946.946,0,0,0,51.676,75.793Zm.245,3.841a.245.245,0,0,1-.245.245H46.819a.245.245,0,0,1-.252-.238s0,0,0-.007V76.746a.245.245,0,0,1,.245-.245h4.864a.245.245,0,0,1,.245.245Z" transform="translate(-45.866 -75.793)" fill="#adadad"/>
      </g>
    </g>
    <g id="Сгруппировать_37" data-name="Сгруппировать 37" transform="translate(2.368 4.002)">
      <g id="Сгруппировать_36" data-name="Сгруппировать 36" transform="translate(0 0)">
        <path id="Контур_60" data-name="Контур 60" d="M77.02,107.615l0-.005a.35.35,0,0,0-.477-.126l-1.969,1.135-1.976-1.135a.352.352,0,0,0-.35.61l1.969,1.135a.7.7,0,0,0,.7,0l1.976-1.135A.35.35,0,0,0,77.02,107.615Z" transform="translate(-72.068 -107.437)" fill="#adadad"/>
      </g>
    </g>
  </g>
</svg>
