<svg xmlns="http://www.w3.org/2000/svg" width="16" height="16.003" viewBox="0 0 16 16.003">
  <g id="_065-chat-3" data-name="065-chat-3" transform="translate(-0.047)">
    <g id="Сгруппировать_28" data-name="Сгруппировать 28" transform="translate(0.047)">
      <g id="Сгруппировать_27" data-name="Сгруппировать 27">
        <path id="Контур_53" data-name="Контур 53" d="M10.547,0h-5a5.5,5.5,0,0,0-5.5,5.5v2a5.5,5.5,0,0,0,5.5,5.5h.5v2.5a.5.5,0,0,0,.855.355L9.752,13h.8a5.5,5.5,0,0,0,5.5-5.5v-2A5.5,5.5,0,0,0,10.547,0Zm4.5,7.5a4.5,4.5,0,0,1-4.5,4.5h-1a.5.5,0,0,0-.355.145L7.047,14.3V12.5a.5.5,0,0,0-.5-.5h-1a4.5,4.5,0,0,1-4.5-4.5v-2A4.5,4.5,0,0,1,5.547,1h5a4.5,4.5,0,0,1,4.5,4.5Z" transform="translate(-0.047)" fill="#adadad"/>
        <rect id="Прямоугольник_257" data-name="Прямоугольник 257" width="8" height="1" transform="translate(4 6)" fill="#adadad"/>
        <rect id="Прямоугольник_258" data-name="Прямоугольник 258" width="8" height="1" transform="translate(4 3.5)" fill="#adadad"/>
        <rect id="Прямоугольник_259" data-name="Прямоугольник 259" width="4" height="1" transform="translate(4 8.5)" fill="#adadad"/>
      </g>
    </g>
  </g>
</svg>
